# xmcd CD database file
#
# Track frame offsets:
#	150
#	15920
#	30261
#	54003
#	70239
#	86556
#	101667
#	117391
#	135377
#	151620
#	166239
#	180551
#	196776
#	229176
#	255508
#	272026
#	288313
#	304520
#	339449
#
# Disc length: 4869 seconds
#
# Revision: 0
# Processed by: cddbd v1.5.1PL0 Copyright (c) Steve Scherf et al.
# Submitted via: CDex 1.51
#
DISCID=e4130313
DTITLE=Variouse Artist - Country-Techno vol. 1
DYEAR=2002
DGENRE=Country
TTITLE0=01 - P.U.B. - Wishki in the jar
TTITLE1=02 - Fog - Make me President
TTITLE2=03 - Two Cowboys - Everybody gonfi-Gon
TTITLE3=04 - Fortnox - Susanna (Vocal Mix)
TTITLE4=05 - The Grips - Texas Cowboys
TTITLE5=06 - Two Sheriffs - The Cowboys Remix
TTITLE6=07 - Two Cowboys - Get up
TTITLE7=08 - The Grips - Swamp Thing
TTITLE8=09 - Westernman - Old Pop in an Oak
TTITLE9=10 - Fortnox - Susanna (Radio Edit)
TTITLE10=11 - Westernman - Cotton Eye Joe
TTITLE11=12 - The Grips - Rollercoaster
TTITLE12=Grid - Swamp Thing (extended)
TTITLE13=Jock Jams - Cotton Eye Joe (Boots Super Mi
TTITLE14=Rednex - Wild and Free
TTITLE15=REDNEX - Cotton Eye Joe 2002 (radio)
TTITLE16=Rednex - Old pop in an oak
TTITLE17=083 Rednex - Cotton Eye Joe 2002(Aqagen Remix)
TTITLE18=Rednex - Cotton Eyed Joe (techno remix)
EXTD=YEAR: 2002
EXTT0=
EXTT1=
EXTT2=
EXTT3=
EXTT4=
EXTT5=
EXTT6=
EXTT7=
EXTT8=
EXTT9=
EXTT10=
EXTT11=
EXTT12=
EXTT13=
EXTT14=
EXTT15=
EXTT16=
EXTT17=
EXTT18=
PLAYORDER=
